<?xml version="1.0" standalone="no"?>
<!DOCTYPE svg PUBLIC "-//W3C//DTD SVG 20010904//EN"
 "http://www.w3.org/TR/2001/REC-SVG-20010904/DTD/svg10.dtd">
<svg version="1.0" xmlns="http://www.w3.org/2000/svg"
 width="300.000000pt" height="300.000000pt" viewBox="0 0 300.000000 300.000000"
 preserveAspectRatio="xMidYMid meet">
<metadata>
Created by potrace 1.11, written by Peter Selinger 2001-2013
</metadata>
<g transform="translate(0.000000,300.000000) scale(0.100000,-0.100000)"
fill="#000000" stroke="none">
<path d="M527 2569 c-31 -24 -61 -110 -76 -224 -20 -140 -11 -614 15 -764 5
-34 6 -34 28 30 51 145 118 258 216 362 70 75 195 163 282 199 32 12 58 25 58
28 0 14 -200 216 -268 271 -74 60 -180 119 -213 119 -9 0 -28 -9 -42 -21z"/>
<path d="M2363 2395 c-39 -7 -109 -25 -155 -40 -95 -32 -332 -134 -397 -172
l-43 -25 67 -40 c221 -133 397 -412 444 -703 l8 -50 32 70 c57 123 159 406
196 545 27 101 38 162 42 245 6 134 -2 160 -54 174 -45 13 -48 13 -140 -4z"/>
<path d="M1150 2120 c-365 -95 -594 -413 -626 -874 -6 -79 -4 -104 14 -163 23
-76 76 -162 145 -238 l46 -50 1 78 c0 99 24 214 60 294 l28 62 -32 19 c-102
60 -144 206 -92 317 62 134 219 188 347 119 47 -26 119 -100 119 -124 0 -4
-17 1 -37 11 -45 23 -63 24 -108 5 -62 -26 -92 -107 -63 -171 13 -30 20 -30
76 -5 23 11 71 25 105 32 34 6 65 14 70 18 7 6 77 611 77 666 0 30 -24 31
-130 4z"/>
<path d="M1440 2135 c0 -13 61 -634 65 -671 5 -38 9 -42 48 -54 23 -7 67 -25
99 -41 56 -28 56 -28 81 -9 58 46 62 144 8 192 -43 39 -91 45 -141 19 -22 -11
-40 -17 -40 -13 1 24 64 92 110 120 47 28 63 32 122 32 79 0 119 -14 173 -61
82 -73 108 -195 61 -294 -29 -61 -66 -97 -129 -125 l-48 -21 21 -32 c41 -61
98 -192 116 -267 10 -41 21 -79 25 -83 11 -14 107 111 146 190 43 87 52 165
34 307 -55 432 -284 718 -641 801 -67 15 -110 19 -110 10z"/>
<path d="M1154 1335 c-85 -18 -152 -55 -206 -112 -57 -62 -74 -94 -99 -190
-21 -82 -27 -295 -9 -323 11 -18 12 -16 34 43 10 27 33 68 52 93 33 43 34 47
34 135 l0 90 64 -45 c62 -45 64 -46 97 -32 95 40 288 40 399 1 126 -44 263
-159 312 -261 12 -24 24 -44 27 -44 4 1 18 11 34 23 l27 23 -15 81 c-56 297
-206 466 -457 517 -92 19 -210 19 -294 1z m334 -95 c2 -19 -14 -42 -62 -93
-57 -61 -67 -68 -97 -65 -26 2 -45 17 -96 76 -55 62 -62 75 -53 92 10 19 20
20 158 18 l147 -3 3 -25z"/>
<path d="M1223 920 c-142 -30 -248 -131 -277 -267 -7 -30 -5 -32 81 -86 113
-69 170 -98 261 -131 l73 -26 62 22 c80 27 159 66 269 135 l88 54 -26 51 c-31
62 -114 151 -170 184 -97 57 -260 86 -361 64z"/>
</g>
</svg>
