<svg id="Layer_1" data-name="Layer 1" xmlns="http://www.w3.org/2000/svg" viewBox="0 0 530.45 285.42"><defs><style>.cls-1{fill:#4c5c8b;}.cls-2{fill:#c65556;}</style></defs><title>atomic-bulldog-logo</title><path class="cls-1" d="M-148,163.85h25l.42-.28,2.38,2.79a19.8,19.8,0,0,0-1.54,1.4q-.84.84-3.36,3.08-1.81,1.82-6.57,5.59l-1.26-1.68A54.33,54.33,0,0,1-134,182.3a9,9,0,0,1-2.09,4.2,18.16,18.16,0,0,1-3.36,3.08,20.61,20.61,0,0,1-5,2.51c-.66-1.21-1-1.91-1.12-2.1a8.15,8.15,0,0,0-1.12-1.25,18.67,18.67,0,0,0,4.75-1.82,8.22,8.22,0,0,0,2.66-2.38,11.1,11.1,0,0,0,1.68-3.35,21.38,21.38,0,0,0,.7-4.2l.14-5.59h3.91v1.81q4.2-3.63,6.58-6.15H-148Z" transform="translate(215.59 92.07)"/><path class="cls-1" d="M-105.76,192.23v-31h3.92v9.93c4.19,1.49,6.9,2.51,8.11,3.07q1.53.7,7.13,3.64l-2.1,3.5a77.5,77.5,0,0,0-6.71-3.92,51.82,51.82,0,0,0-6.43-2.52v17.34Z" transform="translate(215.59 92.07)"/><path class="cls-1" d="M-54.27,187.62l-1.25,3.49a96.24,96.24,0,0,0-22.38-5.45l.56-3.36q8.4,1.26,12.73,2.24A84.37,84.37,0,0,1-54.27,187.62ZM-57.62,176l-1.12,3.36A124.65,124.65,0,0,0-75.1,175l.7-3.21A138.27,138.27,0,0,1-57.62,176Zm1.82-9.23-1,3.5a92.87,92.87,0,0,0-18-5l.84-3.35A159.26,159.26,0,0,1-55.8,166.78Z" transform="translate(215.59 92.07)"/><path class="cls-1" d="M-42.62,173.35-40,172c.47.93,1,1.93,1.61,3s1.23,2.26,1.89,3.57l-2.8,1.4A48.65,48.65,0,0,0-42.62,173.35Zm5.17,20a8.05,8.05,0,0,0-1.68-2.8,31,31,0,0,0,7.83-3.63,18.19,18.19,0,0,0,4.9-5.32A46.56,46.56,0,0,0-22.49,171l3.22,1.12a63.5,63.5,0,0,1-3.92,10.06A21.49,21.49,0,0,1-27.94,188,26.21,26.21,0,0,1-37.45,193.35Zm2-22.09L-32.7,170c1.31,2.8,2.29,5,2.94,6.71L-32.42,178A58.09,58.09,0,0,0-35.49,171.26Z" transform="translate(215.59 92.07)"/><path class="cls-1" d="M4.11,162.87l-2.38,4.47H12.22l.56-.28L15,169.44q-3.23,7.41-4.06,8.81a22.75,22.75,0,0,1-3.91,5.17A26.64,26.64,0,0,1,1.18,188a46.25,46.25,0,0,1-8.39,3.49,9.21,9.21,0,0,0-2.1-3.21,51.81,51.81,0,0,0,7.41-2.66,19.5,19.5,0,0,0,5.45-3.78,26.64,26.64,0,0,0,4.06-5,57.1,57.1,0,0,0,2.93-6.57H.2a43.63,43.63,0,0,1-4.06,5.45,32,32,0,0,1-4.75,4.62c-.47-.56-.8-.94-1-1.12A6.54,6.54,0,0,0-11.27,178a29.83,29.83,0,0,0,3.78-3.36c.74-.84,1.77-2.09,3.07-3.77a43.81,43.81,0,0,0,2.8-4.9,32.49,32.49,0,0,0,2-4.47Z" transform="translate(215.59 92.07)"/><path class="cls-1" d="M79,165.38h23.21l.28-.14,2.52,2.38-2.1,5.73A32.83,32.83,0,0,1,98,182a26.38,26.38,0,0,1-7,6.16,35.66,35.66,0,0,1-8.39,3.63l-.84-2a4,4,0,0,0-.42-.62,9.06,9.06,0,0,0-.7-.77,30.81,30.81,0,0,0,8.11-3.08,25.05,25.05,0,0,0,6.71-6.29,35.35,35.35,0,0,0,5.18-10.35H79Zm28.11-.41-1.4,1.53a8,8,0,0,0-1.4-1.33c-.75-.6-1.49-1.23-2.24-1.88l1.4-1.54A34.69,34.69,0,0,1,107.11,165Zm-2.38-4.2,1.68-1.68a33.69,33.69,0,0,1,3.63,3.22l-1.67,1.54A24.77,24.77,0,0,0,104.73,160.77Z" transform="translate(215.59 92.07)"/><path class="cls-1" d="M112.32,191.53a16.29,16.29,0,0,0-2.24-2.93,18.38,18.38,0,0,0,5.31-4.9,15.36,15.36,0,0,0,2.38-6,93.26,93.26,0,0,0,.56-12.86H122q-.13,8.94-.42,11a25.62,25.62,0,0,1-1.39,6.43,21.63,21.63,0,0,1-3.08,5A19.71,19.71,0,0,1,112.32,191.53Zm14.82-4.05v-25h3.49V185.1a65.36,65.36,0,0,0,5.6-4.75,48.17,48.17,0,0,0,4.75-6,31.42,31.42,0,0,0,2.66,2.24,54.41,54.41,0,0,1-7,8,52.27,52.27,0,0,1-7.7,6L126.72,188Z" transform="translate(215.59 92.07)"/><path class="cls-1" d="M154.86,192.23v-31h3.77v9.93c3,1.12,5.5,2.09,7.55,2.93q4.48,2.25,7.69,4.06l-2.09,3.35q-2.39-1.53-7.13-4.05a46,46,0,0,0-6-2.52v17.34Zm16.08-23.91-2,2q-2.94-2.94-3.91-3.78l1.81-1.67a10.38,10.38,0,0,1,1.82,1.39C169.54,167,170.28,167.67,170.94,168.32Zm1.4-1.26-4.06-3.77,1.82-1.82c2,1.68,3.35,2.89,4.19,3.64Z" transform="translate(215.59 92.07)"/><path class="cls-1" d="M184,173.35l2.65-1.39c.47.93,1,1.93,1.61,3s1.24,2.26,1.89,3.57l-2.8,1.4A47.52,47.52,0,0,0,184,173.35Zm5.17,20a8.05,8.05,0,0,0-1.68-2.8,31,31,0,0,0,7.83-3.63,18.19,18.19,0,0,0,4.9-5.32A46.09,46.09,0,0,0,204.11,171l3.22,1.12a62.53,62.53,0,0,1-3.92,10.06,21.31,21.31,0,0,1-4.75,5.88A26.21,26.21,0,0,1,189.15,193.35Zm2-22.09L193.9,170c1.31,2.8,2.29,5,2.94,6.71L194.18,178A58.09,58.09,0,0,0,191.11,171.26Z" transform="translate(215.59 92.07)"/><path class="cls-1" d="M227.64,167.62H238l.56-.14,2.24,2.1a56.61,56.61,0,0,1-4.19,9.23,28.39,28.39,0,0,1-4.34,5.59,31.68,31.68,0,0,1-6,4.34,28.72,28.72,0,0,1-7.69,3.21,9.44,9.44,0,0,1-.56-1.4l-1.54-1.81a41.4,41.4,0,0,0,7.27-2.52,19.71,19.71,0,0,0,5.46-3.78,24.47,24.47,0,0,0,4.19-4.89q1.53-3.08,3.08-7H226.1a47.29,47.29,0,0,1-8.67,10.21q-.84-1.12-1.26-1.26a19.71,19.71,0,0,0-1.82-1.12,36.58,36.58,0,0,0,6.58-6.57A57.42,57.42,0,0,0,226.1,162l3.63,1.4a3.17,3.17,0,0,1-.28.49,7.25,7.25,0,0,0-.41.77c-.19.37-.38.76-.56,1.18S228,166.88,227.64,167.62Zm9.93-2.79,1.67-1.68c2,1.68,3.26,2.84,3.92,3.49l-1.68,1.68C240.83,167.67,239.52,166.5,237.57,164.83Zm8.94-1.4-1.95,1.81c-2.06-2-3.31-3.26-3.78-3.63l1.54-1.68Q245.53,162.45,246.51,163.43Z" transform="translate(215.59 92.07)"/><path class="cls-1" d="M-215.59,116.59l2.77-6.84v-7.82h3.34l10.18-24.75h6.84l9.77,24.75h3.09v7.82l2.85,7.24-7.65,3-3.91-9.77h-15.63l-4.16,9.93ZM-196,90.86l-4.56,11.07h9Z" transform="translate(215.59 92.07)"/><path class="cls-1" d="M-170.54,85.73h-13V76.61h35v9.12h-12.94l-.17,34.68-9-.16Z" transform="translate(215.59 92.07)"/><path class="cls-1" d="M-147.08,106.33a25.92,25.92,0,0,1-1.14-7.57,23,23,0,0,1,.65-5.7l-.16-.09.82-2.36.08-.08a1.22,1.22,0,0,1,.16-.49,21.9,21.9,0,0,1,4.23-6.92,20.6,20.6,0,0,1,6.44-4.8,18.65,18.65,0,0,1,8.06-1.71h.08a18.2,18.2,0,0,1,8.06,1.71,19.68,19.68,0,0,1,6.43,4.8,20.85,20.85,0,0,1,4.4,7.09l.08.24c0,.08,0,.16.08.16l.16.49L-108,93l-.24.09a21.34,21.34,0,0,1,.73,5.7,23.27,23.27,0,0,1-1.22,7.57l-.49,1.63a23.69,23.69,0,0,1-4.15,6.51,20.63,20.63,0,0,1-6.43,4.72,18.87,18.87,0,0,1-8.06,1.88h-.08a18.77,18.77,0,0,1-8-1.88,21,21,0,0,1-6.52-4.72,23.65,23.65,0,0,1-4.07-6.51l-.08-.33Zm11.32,1.63a10.39,10.39,0,0,0,7.82,3.58,10.6,10.6,0,0,0,8-3.58,13.44,13.44,0,0,0,3.42-9.2A13.48,13.48,0,0,0-120,89.64a10.38,10.38,0,0,0-8-3.67,10.18,10.18,0,0,0-7.82,3.67,13.13,13.13,0,0,0-3.5,9.12A13.51,13.51,0,0,0-135.76,108Z" transform="translate(215.59 92.07)"/><path class="cls-1" d="M-105.25,119.84l1.71-43.39,16.61,20,16.45-20,1.79,43.39-8.47.33L-78,99.08l-8.88,11-9.12-11-.89,21.09Z" transform="translate(215.59 92.07)"/><path class="cls-1" d="M-50.55,111.21v8.88H-66.43v-8.88h3.34V84.43h-3.09V75.88h15.55v8.55H-54v26.78Z" transform="translate(215.59 92.07)"/><path class="cls-1" d="M-8.83,106.49l-.24.57a23.31,23.31,0,0,1-4.23,6.43A20.66,20.66,0,0,1-20,118.3a20.51,20.51,0,0,1-8.22,1.79,20.23,20.23,0,0,1-8.23-1.79,19,19,0,0,1-6.67-4.81,21.06,21.06,0,0,1-4.56-7.08,23.88,23.88,0,0,1-1.63-8.63,23.77,23.77,0,0,1,1.63-8.55,21.89,21.89,0,0,1,4.56-7.08,20.51,20.51,0,0,1,6.59-4.81,20.41,20.41,0,0,1,8.31-1.79A20.8,20.8,0,0,1-20,77.34a20.66,20.66,0,0,1,6.68,4.81,22.48,22.48,0,0,1,4,6.1l-7.49,6-.08-.17a12.67,12.67,0,0,0-3-5.37A11.23,11.23,0,0,0-28.2,85a11.12,11.12,0,0,0-8.39,3.66,13.68,13.68,0,0,0-3.5,9.12,13.37,13.37,0,0,0,3.5,9.12,11.2,11.2,0,0,0,8.39,3.74A11.23,11.23,0,0,0-19.9,107a13.85,13.85,0,0,0,2.69-4.23l.16-.9Z" transform="translate(215.59 92.07)"/><path class="cls-1" d="M18.91,76.37l2.36-.09c4.56-.16,9.36-.16,14.09-.16,6.18,0,10.25,0,11.31.08h.57a11.21,11.21,0,0,1,7.58,4.64,13.53,13.53,0,0,1,2,7.49A18.09,18.09,0,0,1,56,94.44a6.51,6.51,0,0,1-.74,1.71,4,4,0,0,1,1.22,1.14,11.46,11.46,0,0,1,2.28,3.91,23.52,23.52,0,0,1,.66,6.51,14.88,14.88,0,0,1-2,7.82,11.24,11.24,0,0,1-7.9,4.88H49c-2.11.09-6.27.09-11.56.09-4.56,0-10.18,0-16.12-.09L19,120.33l.33-9h2.85v-9.11H20.05V93.06h2.12V85.4H21.6l-2.28.08Zm28.41,12c0-2.6-.73-2.93-1.38-3-2.28-.08-6.27-.16-11.15-.16H31v7.9h3.26c9.93-.25,12-.65,12.29-.74S47.32,91.84,47.32,88.33ZM31,111.05c2.36,0,4.64.16,6.84.16,5.62,0,9.12-.16,10.26-.16a2.93,2.93,0,0,0,1.38-.73,6.92,6.92,0,0,0,.57-2.93,11.24,11.24,0,0,0-.4-3.75c-.17-.73-.41-.81-.82-1-.24,0-2.69-.65-14.57-.89H32.83a7.09,7.09,0,0,1-1.87.16Z" transform="translate(215.59 92.07)"/><path class="cls-1" d="M77.46,120A14.93,14.93,0,0,1,67,115.69a14.76,14.76,0,0,1-4.31-10.5V76.85h9v28.34a5.79,5.79,0,0,0,5.87,5.86H86.9a5.83,5.83,0,0,0,5.86-5.86V76.85h8.88v28.34A14.75,14.75,0,0,1,86.9,120Z" transform="translate(215.59 92.07)"/><path class="cls-1" d="M106.61,111.13l-1-35.34,9.12-.16,1,35.42,27.44-.16v9l-38.27.4v-9.2Z" transform="translate(215.59 92.07)"/><path class="cls-1" d="M148.14,111.13l-1-35.34,9.12-.16,1,35.42,27.44-.16v9l-38.26.4v-9.2Z" transform="translate(215.59 92.07)"/><path class="cls-1" d="M188,76.28h2.69c1.06,0,3.75-.16,7.25-.16,4.39,0,8.38.25,11.88.57a22.76,22.76,0,0,1,12.62,5.54,16.68,16.68,0,0,1,4.48,6.67c1,2.45,1.31,5.38,1.31,9.37,0,4.15-.33,7-1.31,9.52a16.37,16.37,0,0,1-4.48,6.6,22.22,22.22,0,0,1-12.62,5.54,92.6,92.6,0,0,1-12.13.57c-3.34,0-5.94-.09-6.84-.09h-.4l-2.45-.08.74-8.55h1.87V84.91l-1.87.09Zm30.13,15.39a8.67,8.67,0,0,0-2.44-3.42,11.33,11.33,0,0,0-7-2.93c-2.6-.32-5.69-.57-8.95-.65V112c3.26-.09,6.35-.25,8.95-.49a11.91,11.91,0,0,0,7-3,8.4,8.4,0,0,0,2.44-3.51,16,16,0,0,0,.73-5.86V97.7a16,16,0,0,0-.73-6Z" transform="translate(215.59 92.07)"/><path class="cls-1" d="M232.58,106.33a25.59,25.59,0,0,1-1.14-7.57,22.57,22.57,0,0,1,.65-5.7l-.17-.09.82-2.36.08-.08A1.22,1.22,0,0,1,233,90a21.75,21.75,0,0,1,4.24-6.92,20.56,20.56,0,0,1,6.43-4.8,18.65,18.65,0,0,1,8.06-1.71h.08a18.17,18.17,0,0,1,8.06,1.71,19.68,19.68,0,0,1,6.43,4.8,20.69,20.69,0,0,1,4.4,7.09l.08.24c0,.08,0,.16.08.16l.17.49.65,1.87-.25.09a21.34,21.34,0,0,1,.74,5.7,23.28,23.28,0,0,1-1.23,7.57l-.48,1.63a24,24,0,0,1-4.16,6.51,20.63,20.63,0,0,1-6.43,4.72,18.84,18.84,0,0,1-8.06,1.88h-.08a18.8,18.8,0,0,1-8-1.88,21,21,0,0,1-6.51-4.72,23.42,23.42,0,0,1-4.07-6.51l-.09-.33ZM243.89,108a10.39,10.39,0,0,0,7.82,3.58,10.6,10.6,0,0,0,8-3.58,14,14,0,0,0,0-18.32,10.38,10.38,0,0,0-8-3.67,10.18,10.18,0,0,0-7.82,3.67,13.13,13.13,0,0,0-3.5,9.12A13.51,13.51,0,0,0,243.89,108Z" transform="translate(215.59 92.07)"/><path class="cls-1" d="M314.08,115.53h-6.84a15.72,15.72,0,0,1-4.07,2.44,17.7,17.7,0,0,1-7.81,1.63,19,19,0,0,1-7.74-1.55l-.08-.08a19.14,19.14,0,0,1-6.27-4.48,20.65,20.65,0,0,1-4.23-6.67,23.47,23.47,0,0,1-1.63-8.23A23,23,0,0,1,277,90.45a22.5,22.5,0,0,1,4.23-6.76,19.68,19.68,0,0,1,6.35-4.39,17.39,17.39,0,0,1,7.74-1.8,17.13,17.13,0,0,1,7.73,1.8,18.08,18.08,0,0,1,6.43,4.39,23.37,23.37,0,0,1,3.18,4.56l-6.84,5.46a11.92,11.92,0,0,0-2.44-3.83,11.2,11.2,0,0,0-8.06-3.58,10.86,10.86,0,0,0-8,3.58,12.8,12.8,0,0,0,0,17.42,10.24,10.24,0,0,0,8,3.67,10.7,10.7,0,0,0,8.06-3.67c.16-.08.16-.24.32-.32h-4.8V98.51h15.14Z" transform="translate(215.59 92.07)"/><path class="cls-1" d="M18.33-65.32c-1.82-2.14-3.78-4.37-5.83-6.59C.82-84.53-9.57-92.07-15.3-92.07h0a3.68,3.68,0,0,0-1.7.36c-.66.34-4,2.65-5.8,15.54C-24-67.5-24.23-56-23.44-42c.43,7.46,1.09,14.83,1.82,21.47C-15.58-41.84-1.77-58.48,18.33-65.32Z" transform="translate(215.59 92.07)"/><path class="cls-1" d="M120.18-78.59a11.71,11.71,0,0,0-5.25-.93c-12.37,0-32.75,9.22-47.3,16.92,20,9.68,32.59,30,35.89,54.48,3.42-7.74,7.86-18.37,11.57-29.25,4.08-12,6.48-21.86,7.13-29.33C122.89-74.36,121.54-77.89,120.18-78.59Z" transform="translate(215.59 92.07)"/><path class="cls-1" d="M36.57,22.28C18.9,22.28,12.84,33,10.7,42.78a145.86,145.86,0,0,0,16.17,9.87l0,0c7,3.26,11.47,4.66,12.75,4.81,1.82-.2,7.67-2.39,12.74-4.77a148.41,148.41,0,0,0,15.85-9.66C64.12,33.2,54.67,22.28,36.57,22.28Z" transform="translate(215.59 92.07)"/><path class="cls-1" d="M-6.79-21.3A17.75,17.75,0,0,1,3-31,17.66,17.66,0,0,1,9.28-32.3h.29a17.46,17.46,0,0,1,4.24.52,17.7,17.7,0,0,1,13,13.1,8.57,8.57,0,0,0-7.54-4.51,8.56,8.56,0,0,0-8.56,8.56A8.53,8.53,0,0,0,13-8.78a38.55,38.55,0,0,1,14.19-4.65l.51-.07,1.38-.16,4.09-37.42.68-6.19.45-4.12c-1.12.09-2.23.21-3.32.37-1.33.18-2.65.41-3.94.68s-2.57.58-3.83.94A51.32,51.32,0,0,0-2.52-42.57c-6.88,8.28-11.62,18.91-13.9,30.85-.37,2-.67,3.92-.91,5.93-.21,1.81-.38,3.64-.48,5.49S-18,3.26-18,5.07c0,9.28,6.58,18.37,14,25.65-.36-8.3.5-19.91,6.36-29.22a17.72,17.72,0,0,1-10-12,17.89,17.89,0,0,1-.49-4.17V-15A17.58,17.58,0,0,1-6.79-21.3Z" transform="translate(215.59 92.07)"/><path class="cls-1" d="M96.18-9.14c-.42-2.64-1-5.23-1.61-7.74A65.84,65.84,0,0,0,81.84-42.57,51.32,51.32,0,0,0,62.76-57a52.29,52.29,0,0,0-6.36-2.31,55.77,55.77,0,0,0-5.57-1.31c-1.83-.33-3.69-.58-5.6-.74L50-12.24c.69.18,1.37.37,2,.58l.27.09A42.47,42.47,0,0,1,63-6.61a8.57,8.57,0,0,0,5.61-8,8.56,8.56,0,0,0-8.56-8.56,8.57,8.57,0,0,0-7.54,4.51,17.68,17.68,0,0,1,17.2-13.62,18.21,18.21,0,0,1,3.87.43,17.7,17.7,0,0,1,7.45,3.68,17.89,17.89,0,0,1,4.47,5.63,17.62,17.62,0,0,1,1.88,7.93c0,.05,0,.1,0,.16A17.67,17.67,0,0,1,73.18,2.69c7,9,9.92,19.64,11.11,27.06,7-7.14,13-15.82,13-24.68,0-2.53-.11-5-.31-7.48Q96.71-5.83,96.18-9.14Z" transform="translate(215.59 92.07)"/><path class="cls-1" d="M61.36.91a34.49,34.49,0,0,0-3-2c-6.27-3.8-14-5.73-23-5.73a46.6,46.6,0,0,0-10.49,1.1c-6.34,1.45-11.3,4.36-14.8,8.71L10,3C4.52,9.89,3.2,19.43,3.07,26.23a68.64,68.64,0,0,0,.7,11.19l.82.61a35.1,35.1,0,0,1,4.33-9.49A29.27,29.27,0,0,1,12,24.61L11.75,12,21,18.27a37.42,37.42,0,0,1,15.62-3.09c11.94,0,22.26,4.2,29.82,12.13A42.94,42.94,0,0,1,74,38.44l3.86-3c-.57-6.53-3-21.41-13-31.54A33.43,33.43,0,0,0,61.36.91ZM48.47,2.25l-7,8.12c-1.61,1.87-5.65,1.87-7.27,0l-7-8.12c-1.62-1.86.4-4.2,3.64-4.2H44.84C48.07-1.95,50.09.39,48.47,2.25Z" transform="translate(215.59 92.07)"/><rect class="cls-2" x="0.74" y="232.2" width="529.71" height="3"/></svg>